<svg width="18" height="21" viewBox="0 0 18 21" fill="none" xmlns="http://www.w3.org/2000/svg">
<path d="M3.60022 8.38767V13.1373C3.60022 13.7689 3.11406 14.2734 2.49531 14.2734C1.88058 14.2734 1.28593 13.7648 1.28593 13.1373V8.38767C1.28593 7.76833 1.88058 7.25974 2.49531 7.25974C3.10201 7.25974 3.60022 7.76833 3.60022 8.38767ZM4.03415 14.8271C4.03415 15.4998 4.56451 16.0412 5.22343 16.0412H6.02299L6.03504 18.5472C6.03504 20.0607 8.2529 20.0484 8.2529 18.5472V16.0412H9.74754V18.5472C9.74754 20.0525 11.9775 20.0566 11.9775 18.5472V16.0412H12.7891C13.44 16.0412 13.9703 15.4998 13.9703 14.8271V7.46892H4.03415V14.8271ZM13.9984 7.07107H3.98995C3.98995 5.3156 5.01852 3.78982 6.54531 2.99411L5.7779 1.54626C5.6654 1.34529 5.95067 1.21814 6.0471 1.3904L6.82656 2.85056C8.22879 2.21482 9.83995 2.24763 11.1779 2.85056L11.9533 1.39451C12.0538 1.21814 12.335 1.34939 12.2225 1.55036L11.4551 2.99411C12.9699 3.78982 13.9984 5.3156 13.9984 7.07107ZM7.13995 4.7947C7.13995 4.56091 6.95513 4.36404 6.71808 4.36404C6.48906 4.36404 6.30826 4.56091 6.30826 4.7947C6.30826 5.02849 6.49308 5.22536 6.71808 5.22536C6.95513 5.22536 7.13995 5.02849 7.13995 4.7947ZM11.6962 4.7947C11.6962 4.56091 11.5114 4.36404 11.2864 4.36404C11.0493 4.36404 10.8645 4.56091 10.8645 4.7947C10.8645 5.02849 11.0493 5.22536 11.2864 5.22536C11.5114 5.22536 11.6962 5.02849 11.6962 4.7947ZM15.5051 7.25974C14.8984 7.25974 14.4002 7.75603 14.4002 8.38767V13.1373C14.4002 13.7689 14.8984 14.2734 15.5051 14.2734C16.1239 14.2734 16.7145 13.7648 16.7145 13.1373V8.38767C16.7145 7.75603 16.1199 7.25974 15.5051 7.25974Z" fill="#636D85"/>
</svg>
