<svg width="16" height="20" viewBox="0 0 16 20" fill="none" xmlns="http://www.w3.org/2000/svg">
<path d="M10.8815 3.20501C10.1836 4.0447 9.06681 4.70699 7.95006 4.61238C7.81046 3.47702 8.35721 2.27071 8.99701 1.52563C9.69499 0.66229 10.9164 0.0473064 11.9052 0C12.0216 1.18266 11.5679 2.34167 10.8815 3.20501ZM11.8936 4.83708C10.2766 4.74247 8.89232 5.77138 8.12455 5.77138C7.34515 5.77138 6.17023 4.88439 4.89061 4.90804C3.22711 4.93169 1.67994 5.88965 0.830743 7.41528C-0.914187 10.4665 0.377062 14.9843 2.06383 17.4679C2.88976 18.6979 3.87855 20.0461 5.18143 19.9988C6.41452 19.9515 6.9031 19.1828 8.39211 19.1828C9.89275 19.1828 10.3232 19.9988 11.626 19.9751C12.9755 19.9515 13.8247 18.7452 14.6506 17.5152C15.5928 16.1197 15.9767 14.7596 16 14.6886C15.9767 14.665 13.3942 13.6597 13.371 10.6321C13.3477 8.10122 15.4067 6.89491 15.4998 6.82395C14.3365 5.07361 12.5218 4.88439 11.8936 4.83708Z" fill="#636D85"/>
</svg>
