<svg width="24" height="24" viewBox="0 0 24 24" fill="none" xmlns="http://www.w3.org/2000/svg">
<g opacity="0.5">
<path d="M11.2919 18.366C11.4794 18.1785 11.5848 17.9241 11.5848 17.6589C11.5848 17.3937 11.4794 17.1394 11.2919 16.9518L7.33914 12.9991L19.07 13.0062C19.3363 13.0062 19.5917 12.9004 19.78 12.7121C19.9683 12.5238 20.0741 12.2684 20.0741 12.0021C20.0741 11.7358 19.9683 11.4804 19.78 11.2921C19.5917 11.1038 19.3363 10.998 19.07 10.998L7.33914 11.0051L11.2919 7.05233C11.4794 6.86479 11.5848 6.61044 11.5848 6.34522C11.5848 6.08 11.4794 5.82565 11.2919 5.63811C11.1043 5.45058 10.85 5.34522 10.5848 5.34522C10.3195 5.34522 10.0652 5.45058 9.87765 5.63811L4.2208 11.295C4.03326 11.4825 3.9279 11.7369 3.9279 12.0021C3.9279 12.2673 4.03326 12.5216 4.2208 12.7092L9.87765 18.366C10.0652 18.5536 10.3195 18.6589 10.5848 18.6589C10.85 18.6589 11.1043 18.5536 11.2919 18.366Z" fill="white"/>
</g>
</svg>
