<svg width="19" height="20" viewBox="0 0 19 20" fill="none" xmlns="http://www.w3.org/2000/svg">
<path d="M15.7711 13.945C15.9506 14.0207 16.1053 14.1497 16.2165 14.3162C16.3162 14.4725 16.3863 14.6613 16.4302 14.8825C16.454 15.0125 16.4825 15.1325 16.5133 15.245C16.5715 15.4558 16.6592 15.6563 16.7734 15.84C16.8292 15.9312 16.904 16.0312 16.9966 16.1425C17.0762 16.2337 17.1475 16.3512 17.2104 16.4937C17.2684 16.6219 17.2996 16.7618 17.3018 16.9037C17.3064 17.0402 17.2676 17.1744 17.1914 17.285C17.1139 17.3924 17.0195 17.485 16.9123 17.5588C16.7698 17.6625 16.6214 17.7537 16.467 17.8325C16.3126 17.91 16.1583 17.9913 16.0039 18.0763C15.7731 18.192 15.5525 18.3292 15.3448 18.4862C15.1596 18.63 14.9731 18.8113 14.7879 19.0338C14.5719 19.2884 14.3219 19.5086 14.0457 19.6875C13.9046 19.7817 13.7515 19.8541 13.5909 19.9025C13.4365 19.9475 13.2821 19.9775 13.1278 19.99C12.7691 19.99 12.4723 19.925 12.2371 19.795C12.002 19.665 11.7978 19.4275 11.6244 19.0825C11.5745 18.9837 11.5258 18.9225 11.476 18.8962C11.3989 18.8619 11.3178 18.8388 11.2349 18.8275L10.2956 18.75C9.98683 18.725 9.67214 18.7113 9.35033 18.7113C9.08306 18.7116 8.81623 18.7342 8.55233 18.7787C8.28039 18.825 8.01083 18.88 7.74483 18.945C7.6902 18.9575 7.63439 19.0075 7.57858 19.0912C7.50909 19.1929 7.4312 19.2878 7.34583 19.375C7.23014 19.491 7.09533 19.5837 6.94801 19.6488C6.73809 19.7351 6.51431 19.7779 6.28895 19.775C6.0847 19.775 5.86502 19.7525 5.62989 19.7075C5.40992 19.6672 5.19721 19.5913 4.99933 19.4825C4.64237 19.2903 4.26136 19.1523 3.86764 19.0725C3.49595 19.0013 3.10408 18.935 2.68964 18.8775C2.55228 18.8587 2.41593 18.8324 2.28114 18.7987C2.15663 18.7691 2.03934 18.7125 1.93677 18.6325C1.84263 18.5592 1.76415 18.466 1.70639 18.3587C1.64307 18.2222 1.61094 18.0719 1.61258 17.92C1.61258 17.7175 1.63752 17.5225 1.68739 17.3337C1.73727 17.1462 1.76458 16.9462 1.77052 16.7388C1.77052 16.595 1.76102 16.455 1.7432 16.3188C1.72356 16.1728 1.71088 16.026 1.7052 15.8787C1.7052 15.5475 1.78002 15.3037 1.92845 15.1462C2.07689 14.99 2.29302 14.8663 2.57802 14.775C2.70463 14.7347 2.82387 14.6721 2.9307 14.59C3.02871 14.5122 3.12155 14.4274 3.20858 14.3363C3.29693 14.2428 3.37758 14.1416 3.44964 14.0338C3.52445 13.9225 3.60758 13.8113 3.7002 13.7013C3.71868 13.6762 3.72871 13.6454 3.7287 13.6137C3.7287 13.535 3.72514 13.46 3.7192 13.3888L3.7002 13.1537C3.7002 12.7112 3.76552 12.2662 3.89495 11.8162C4.02558 11.3663 4.19539 10.9288 4.40558 10.4975C4.61544 10.0688 4.85104 9.65464 5.11095 9.2575C5.36983 8.86125 5.62751 8.4925 5.88045 8.15375C6.22402 7.70099 6.49662 7.19334 6.68795 6.65C6.86608 6.13 6.95989 5.5625 6.96583 4.95C6.96583 4.69125 6.95395 4.43375 6.92902 4.18C6.9041 3.92041 6.89181 3.65966 6.8922 3.39875C6.8922 2.8775 6.94801 2.40875 7.05845 1.9925C7.17008 1.575 7.34345 1.2175 7.57858 0.9175C7.8137 0.6175 8.12008 0.39375 8.49652 0.24375C8.87533 0.09375 9.32658 0.0125 9.85145 0C10.4773 0 10.9748 0.13 11.3465 0.39125C11.717 0.65125 12.002 0.9925 12.1991 1.41625C12.3975 1.83875 12.5245 2.31125 12.5791 2.8325C12.6361 3.3525 12.667 3.88 12.673 4.41375V4.58C12.673 4.8475 12.6753 5.085 12.6825 5.2925C12.6935 5.71437 12.7848 6.12963 12.9508 6.51375C13.0375 6.715 13.167 6.93375 13.3403 7.1675C13.6372 7.57875 13.9412 7.9925 14.25 8.40875C14.5587 8.825 14.8401 9.255 15.0931 9.69625C15.3472 10.14 15.555 10.6025 15.7153 11.0837C15.8768 11.5662 15.96 12.0862 15.9659 12.6462C15.9675 13.0878 15.9017 13.5267 15.7711 13.9462V13.945ZM7.98827 3.77C8.07377 3.77 8.14501 3.7925 8.20201 3.8375C8.25993 3.88656 8.30457 3.95079 8.33145 4.02375C8.36126 4.09882 8.38278 4.17726 8.39558 4.2575C8.40745 4.33625 8.41458 4.4175 8.41458 4.5025C8.41651 4.55619 8.40677 4.60963 8.38608 4.65875C8.36573 4.70025 8.33743 4.73686 8.30295 4.76625L8.19133 4.86375C8.15153 4.89923 8.11459 4.93811 8.08089 4.98C8.03636 5.05298 7.97563 5.11347 7.90395 5.15625C7.83041 5.20119 7.75907 5.25 7.6902 5.3025C7.62442 5.35274 7.56248 5.40832 7.50495 5.46875C7.4762 5.50138 7.45401 5.53979 7.43973 5.58168C7.42544 5.62357 7.41935 5.66807 7.42183 5.7125C7.42183 5.77125 7.44914 5.82 7.50495 5.85875C7.64342 5.95055 7.75325 6.08311 7.82083 6.24C7.88258 6.39 7.95145 6.53625 8.02508 6.68C8.0987 6.8225 8.19489 6.9425 8.31245 7.04125C8.43001 7.13875 8.61289 7.1875 8.8587 7.1875H8.9157C9.1627 7.175 9.39783 7.10625 9.62108 6.9825C9.84314 6.85875 10.0664 6.72875 10.2885 6.59125C10.3271 6.56836 10.3677 6.54912 10.4096 6.53375C10.4527 6.51755 10.4932 6.49436 10.5295 6.465L11.2064 5.90875C11.2182 5.86685 11.2277 5.82428 11.2349 5.78125C11.2421 5.73556 11.2484 5.68971 11.2539 5.64375C11.256 5.5816 11.2393 5.52036 11.2064 5.46875C11.176 5.42341 11.1387 5.3837 11.096 5.35125C11.0485 5.31717 10.9946 5.29416 10.938 5.28375C10.8814 5.27179 10.8258 5.25507 10.7718 5.23375C10.6237 5.20172 10.4822 5.14248 10.3538 5.05875C10.2262 4.97537 10.0889 4.90982 9.94526 4.86375C9.92151 4.85625 9.90251 4.8375 9.88945 4.805C9.87531 4.76651 9.86303 4.72729 9.85264 4.6875C9.84042 4.64629 9.83717 4.60271 9.84314 4.56C9.8499 4.52726 9.84658 4.49311 9.83364 4.4625C9.83364 4.385 9.83958 4.30375 9.85264 4.21875C9.86546 4.1327 9.89366 4.04999 9.93576 3.975C9.97197 3.90555 10.0227 3.8457 10.0842 3.8C10.1574 3.75503 10.2405 3.7309 10.3253 3.73C10.5176 3.73 10.6566 3.805 10.7433 3.955C10.83 4.105 10.8763 4.2675 10.8822 4.4425C10.8837 4.52028 10.8679 4.59736 10.8359 4.6675C10.8042 4.73423 10.7879 4.8079 10.7884 4.8825C10.7884 4.935 10.805 4.97 10.8359 4.99C10.8733 5.01158 10.9145 5.02478 10.957 5.02875C11.0995 5.02875 11.191 4.99375 11.2349 4.9225C11.2849 4.82325 11.3102 4.71231 11.3085 4.6C11.3085 4.45 11.2966 4.28375 11.2729 4.10125C11.2494 3.92469 11.1989 3.7533 11.1233 3.59375C11.0541 3.44392 10.9562 3.31072 10.8359 3.2025C10.707 3.09473 10.5455 3.03968 10.3811 3.0475C10.0605 3.0475 9.8277 3.13125 9.6852 3.30125C9.5427 3.47 9.46908 3.72375 9.46314 4.0625C9.46314 4.16 9.46908 4.2575 9.48095 4.355C9.49283 4.45375 9.49995 4.55125 9.49995 4.64875C9.49995 4.68125 9.49639 4.6975 9.49045 4.6975C9.47119 4.69309 9.45246 4.68638 9.43464 4.6775C9.39765 4.66171 9.36083 4.64546 9.3242 4.62875C9.27881 4.60857 9.23195 4.59227 9.18408 4.58C9.10516 4.55982 9.0232 4.55642 8.94302 4.57C8.89378 4.57657 8.84421 4.57991 8.79458 4.58C8.70789 4.58 8.66395 4.56375 8.66395 4.53125C8.66395 4.43375 8.6592 4.31 8.64614 4.16C8.63426 4.01 8.60339 3.86 8.55351 3.71C8.51205 3.57654 8.44941 3.45144 8.36826 3.34C8.29345 3.2425 8.18301 3.19 8.03458 3.18375C7.93486 3.18133 7.83817 3.21989 7.76502 3.29125C7.68879 3.36548 7.62319 3.45096 7.57026 3.545C7.51336 3.64656 7.47849 3.7601 7.46814 3.8775C7.45818 3.98195 7.44591 4.08615 7.43133 4.19C7.43609 4.36245 7.46408 4.53332 7.51445 4.6975C7.54533 4.80125 7.57976 4.8925 7.61658 4.97125C7.65339 5.04875 7.69733 5.0875 7.7472 5.0875C7.77689 5.0875 7.81845 5.065 7.86714 5.02C7.91702 4.97375 7.94195 4.9325 7.94195 4.8925C7.94195 4.8725 7.93245 4.86 7.91345 4.85375C7.89549 4.84724 7.87664 4.84386 7.85764 4.84375C7.81489 4.84375 7.77689 4.82125 7.74601 4.775C7.71419 4.72708 7.68938 4.67441 7.67239 4.61875C7.6529 4.55738 7.6343 4.49571 7.61658 4.43375C7.57959 4.2651 7.60284 4.08802 7.68189 3.93625C7.7377 3.83125 7.83983 3.77625 7.98827 3.77ZM5.96476 18.975C6.1132 18.975 6.25926 18.9625 6.40176 18.935C6.54283 18.9095 6.67814 18.8565 6.80077 18.7787C6.91835 18.7071 7.0146 18.6024 7.07864 18.4762C7.1462 18.3298 7.18421 18.1702 7.19026 18.0075C7.19027 17.8912 7.1714 17.7758 7.13445 17.6663C7.09672 17.5545 7.0435 17.4492 6.97651 17.3538C6.90322 17.2315 6.82271 17.1142 6.73545 17.0025C6.64815 16.8904 6.56764 16.7727 6.49439 16.65C6.3789 16.4713 6.2641 16.2922 6.15001 16.1125C6.03958 15.9375 5.92795 15.7525 5.81751 15.5562C5.71987 15.3899 5.62681 15.2207 5.53845 15.0487C5.44766 14.8732 5.34193 14.7067 5.22258 14.5512C5.14721 14.4522 5.06022 14.3636 4.9637 14.2875C4.86454 14.2091 4.74335 14.1677 4.61933 14.17C4.48996 14.168 4.36456 14.217 4.26783 14.3075C4.15728 14.4089 4.05481 14.5197 3.96145 14.6388C3.85195 14.7738 3.73414 14.9012 3.60877 15.02C3.47814 15.1438 3.31189 15.2413 3.10764 15.3125C2.96942 15.3515 2.84228 15.4253 2.73714 15.5275C2.65045 15.6187 2.60652 15.7588 2.60652 15.9475C2.60652 16.0775 2.61602 16.2075 2.63502 16.3375C2.65283 16.4675 2.66589 16.5988 2.67183 16.7288C2.67183 16.9038 2.64808 17.07 2.59702 17.2262C2.54911 17.374 2.52425 17.5289 2.52339 17.685C2.52339 17.8612 2.58277 17.985 2.69914 18.0562C2.81789 18.1287 2.9497 18.1775 3.09814 18.2025C3.28458 18.2362 3.46033 18.2612 3.62777 18.2812C3.79402 18.3013 3.95789 18.3312 4.11939 18.3687C4.2797 18.4088 4.44001 18.45 4.60151 18.4963C4.76183 18.5413 4.93283 18.6138 5.11214 18.7113C5.14776 18.73 5.20477 18.7537 5.27839 18.7787L5.52895 18.8663C5.62158 18.9 5.70826 18.9263 5.78901 18.945C5.84648 18.9612 5.90537 18.9713 5.96476 18.975ZM9.36101 17.8025C9.53439 17.8025 9.71964 17.7838 9.91795 17.7437C10.3217 17.6641 10.7122 17.5226 11.077 17.3237C11.2468 17.2326 11.4082 17.1251 11.5591 17.0025C11.5741 16.9847 11.5869 16.965 11.5971 16.9438C11.6089 16.9186 11.6181 16.8922 11.6244 16.865V16.855C11.6612 16.7125 11.6921 16.555 11.717 16.3862C11.7427 16.2143 11.7645 16.0418 11.7823 15.8687C11.8003 15.6957 11.8221 15.5232 11.8476 15.3512C11.8714 15.1825 11.894 15.0163 11.9118 14.8538C11.9367 14.6788 11.9676 14.5087 12.0044 14.3463C12.0424 14.1838 12.0911 14.03 12.1528 13.8863C12.2139 13.7447 12.2988 13.616 12.4034 13.5063C12.5252 13.3827 12.6626 13.2775 12.8119 13.1938V13.1737L12.8024 13.145C12.8045 13.0787 12.8238 13.0143 12.8582 12.9587C12.8998 12.887 12.9462 12.8185 12.9971 12.7537C13.0466 12.688 13.1064 12.6318 13.1741 12.5875C13.2359 12.5485 13.3011 12.5159 13.3688 12.49C13.3314 12.3329 13.291 12.1766 13.2477 12.0212C13.2047 11.8666 13.1675 11.7102 13.1361 11.5525C13.1057 11.3529 13.0689 11.1545 13.0256 10.9575C12.9912 10.8047 12.9476 10.6544 12.895 10.5075C12.8419 10.3643 12.7699 10.2297 12.6813 10.1075C12.5898 9.9775 12.4746 9.82 12.3393 9.63875C12.2875 9.57791 12.2407 9.51269 12.1991 9.44375C12.1669 9.36627 12.1484 9.28324 12.1445 9.19875C12.1297 9.11329 12.1111 9.02861 12.0887 8.945C12.0053 8.62844 11.9094 8.31567 11.8013 8.0075C11.7443 7.84295 11.676 7.68295 11.5971 7.52875C11.534 7.40527 11.4659 7.28474 11.3928 7.1675C11.3311 7.07 11.2658 7.02125 11.1981 7.02125C11.0496 7.02125 10.8727 7.08375 10.6685 7.2075C10.4654 7.33125 10.2481 7.4675 10.0201 7.6175C9.79089 7.7675 9.56883 7.9075 9.35151 8.0375C9.13539 8.1675 8.94064 8.22875 8.76726 8.2225C8.58224 8.22237 8.40254 8.15727 8.25664 8.0375C8.09938 7.91137 7.95599 7.76714 7.82914 7.6075C7.6997 7.445 7.59164 7.305 7.50495 7.1875C7.41827 7.07 7.35414 7.005 7.3102 6.9925C7.26152 6.9925 7.23302 7.03125 7.22708 7.10875C7.22047 7.19649 7.2173 7.28448 7.21758 7.3725V7.53875C7.21758 7.57875 7.21164 7.60375 7.19858 7.6175C7.13089 7.7675 7.05608 7.91375 6.97651 8.05625C6.89576 8.2 6.8162 8.34625 6.73545 8.49625C6.5755 8.78451 6.48613 9.11011 6.47539 9.44375C6.47539 9.54125 6.48133 9.63875 6.49439 9.73625C6.50626 9.83375 6.53714 9.92875 6.58702 10.02L6.56802 10.0575C6.52034 10.1272 6.46753 10.1928 6.41008 10.2537C6.35156 10.3165 6.29906 10.3852 6.25333 10.4587C6.02618 10.812 5.86238 11.206 5.77002 11.6213C5.67739 12.0375 5.62751 12.4613 5.62158 12.89C5.62158 13.0013 5.6287 13.1125 5.64058 13.2225C5.65245 13.3337 5.65958 13.4437 5.65958 13.555C5.65922 13.591 5.65604 13.627 5.65008 13.6625C5.64411 13.698 5.64093 13.734 5.64058 13.77C5.77258 13.7857 5.89957 13.8322 6.01227 13.9062C6.15477 13.9913 6.30914 14.0988 6.47539 14.2288C6.64164 14.3588 6.80077 14.5087 6.9492 14.6788C7.09764 14.8475 7.23895 15.0125 7.37551 15.1762C7.51208 15.3387 7.61064 15.5013 7.67239 15.6637C7.73414 15.8263 7.77451 15.96 7.79233 16.0637C7.79552 16.1393 7.784 16.2148 7.75847 16.2855C7.73295 16.3562 7.69395 16.4207 7.64389 16.475C7.5374 16.5843 7.41151 16.6706 7.27339 16.7288C7.37908 16.9237 7.50851 17.09 7.66289 17.2262C7.81727 17.3638 7.9847 17.4737 8.16401 17.5588C8.34333 17.6437 8.53808 17.705 8.74826 17.7437C8.95845 17.7838 9.16389 17.8025 9.36101 17.8025ZM13.0815 19.19C13.2109 19.19 13.338 19.17 13.4615 19.1313C13.6486 19.0748 13.8267 18.9892 13.9899 18.8775C14.1514 18.7663 14.2986 18.63 14.4352 18.4662C14.7578 18.0745 15.1525 17.7555 15.5954 17.5287L15.9018 17.3825C16.0069 17.3343 16.1088 17.2787 16.207 17.2162C16.2778 17.169 16.3435 17.1137 16.4029 17.0513C16.4328 17.0208 16.4564 16.9843 16.4723 16.9439C16.4883 16.9034 16.4962 16.86 16.4955 16.8162C16.4956 16.766 16.4859 16.7162 16.467 16.67C16.4449 16.618 16.417 16.5689 16.3839 16.5238C16.2993 16.3997 16.2188 16.2726 16.1428 16.1425C16.0741 16.0242 16.0149 15.9 15.9659 15.7712L15.8175 15.3813C15.7639 15.2381 15.7203 15.091 15.6868 14.9412C15.6739 14.895 15.6521 14.852 15.6227 14.815C15.563 14.7211 15.4815 14.6447 15.3859 14.5933C15.2903 14.5419 15.1837 14.5171 15.0765 14.5212C14.9657 14.5208 14.8568 14.551 14.7606 14.6088L14.4447 14.795C14.3348 14.8592 14.2235 14.9209 14.111 14.98C14.0016 15.0379 13.8808 15.0679 13.7583 15.0675C13.6488 15.0725 13.5409 15.0386 13.452 14.9713C13.3666 14.8999 13.2969 14.8099 13.2477 14.7075C13.1949 14.6032 13.1485 14.4955 13.1088 14.385L12.9971 14.0625C12.9488 14.1461 12.8931 14.2248 12.8309 14.2975C12.7673 14.372 12.717 14.458 12.6825 14.5512C12.6017 14.7463 12.5518 14.9637 12.534 15.205C12.5031 15.5825 12.4628 15.95 12.4129 16.3088C12.3621 16.6745 12.2786 17.0345 12.1635 17.3837C12.1307 17.4954 12.1057 17.6095 12.0887 17.725C12.0703 17.8447 12.0576 17.9652 12.0507 18.0863C12.0507 18.405 12.1445 18.6688 12.3298 18.8775C12.515 19.085 12.7656 19.19 13.0815 19.19Z" fill="#636D85"/>
</svg>
