<svg width="24" height="24" viewBox="0 0 24 24" fill="none" xmlns="http://www.w3.org/2000/svg">
<path d="M12.7081 5.63396C12.5206 5.8215 12.4152 6.07586 12.4152 6.34107C12.4152 6.60629 12.5206 6.86064 12.7081 7.04818L16.6609 11.0009L4.92996 10.9938C4.66366 10.9938 4.40827 11.0996 4.21996 11.2879C4.03166 11.4762 3.92587 11.7316 3.92587 11.9979C3.92587 12.2642 4.03166 12.5196 4.21996 12.7079C4.40827 12.8962 4.66366 13.002 4.92996 13.002L16.6609 12.9949L12.7081 16.9477C12.5206 17.1352 12.4152 17.3896 12.4152 17.6548C12.4152 17.92 12.5206 18.1743 12.7081 18.3619C12.8957 18.5494 13.15 18.6548 13.4152 18.6548C13.6805 18.6548 13.9348 18.5494 14.1224 18.3619L19.7792 12.705C19.9667 12.5175 20.0721 12.2631 20.0721 11.9979C20.0721 11.7327 19.9667 11.4784 19.7792 11.2908L14.1224 5.63396C13.9348 5.44643 13.6805 5.34107 13.4152 5.34107C13.15 5.34107 12.8957 5.44643 12.7081 5.63396Z" fill="white"/>
</svg>
